<?xml version="1.0" encoding="UTF-8"?><svg id="Layer_1" xmlns="http://www.w3.org/2000/svg" viewBox="0 0 49 46.82"><path d="M36.7,29.63s6.33,14.3,2.89,16.8-15.09-7.93-15.09-7.93c0,0-11.64,10.43-15.09,7.93s2.89-16.8,2.89-16.8c0,0-13.53-7.84-12.21-11.9,1.32-4.06,16.91-2.45,16.91-2.45,0,0,3.24-15.28,7.5-15.28,3.31,0,6,9.22,7.08,13.34-.41,.46-.8,.93-1.19,1.4-2.53,3.05-4.65,6.41-6.33,10-1.56-2.05-3.51-3.79-5.72-5.11h0c-.54-.32-1.24-.14-1.56,.4-.01,.02-.03,.05-.04,.07l-2.26,4.6c-.28,.56-.05,1.25,.52,1.53,.04,.02,.08,.04,.12,.05h0c1.43,.48,2.78,1.18,4,2.08,1.25,.95,2.27,2.16,3,3.55h0c.2,.37,.58,.6,1,.61h2.53c.43-.01,.82-.27,1-.66h0c1.68-3.81,3.87-7.37,6.51-10.59h0c1.96-2.25,4.09-4.35,6.37-6.27,4.19,.07,8.7,.65,9.38,2.75,1.32,4.04-12.21,11.88-12.21,11.88Z" fill="#f2ba2f"/><path d="M38.78,8.94c-.39-.37-1-.37-1.39,0-2.16,2.08-4.21,4.27-6.13,6.57-2.88,3.52-5.24,7.43-7,11.62-1.45-2.41-3.42-4.46-5.77-6-.35-.22-.81-.12-1.04,.22-.02,.02-.03,.05-.04,.08l-1.55,3.07c-.17,.37-.02,.81,.35,.98l.04,.02c1.26,.5,2.44,1.18,3.52,2,1.24,.95,2.28,2.14,3.05,3.5,.15,.26,.43,.42,.73,.42h1.52c.32,0,.6-.19,.74-.47,1.68-3.73,3.86-7.23,6.46-10.39,2.55-2.91,5.36-5.59,8.39-8,.4-.36,.44-.97,.1-1.38l-1.98-2.24Z" fill="#4bc97e"/></svg>