<?xml version="1.0" encoding="UTF-8"?><svg id="Layer_1" xmlns="http://www.w3.org/2000/svg" viewBox="0 0 49 49"><circle cx="24.34" cy="24.47" r="23.02" fill="#fff"/><path d="M24.5,0C10.97,0,0,10.97,0,24.5s10.97,24.5,24.5,24.5,24.5-10.97,24.5-24.5S38.03,0,24.5,0Zm0,45.35c-11.52,0-20.85-9.33-20.85-20.85S12.99,3.65,24.5,3.65s20.85,9.33,20.85,20.85h0c0,11.51-9.32,20.84-20.83,20.85h-.02Z" fill="red"/><path d="M24.5,37.9c-7.39,0-13.4-6.01-13.4-13.4s6.01-13.4,13.4-13.4c2.72,0,5.34,.81,7.57,2.35l.72,.49,2.33-2.53,2.87,11.62-11.86-1.76,2.24-2.47-1.33-.54c-.81-.33-1.66-.49-2.54-.49-3.71,0-6.73,3.02-6.73,6.73s3.02,6.73,6.73,6.73c2.83,0,5.37-1.79,6.33-4.45l.35-.98,6.54,1.27-.38,1.27c-1.73,5.68-6.89,9.52-12.84,9.55Z" fill="red"/><path d="M24.5,32.44c-4.39,0-7.95-3.54-7.96-7.92,0-4.39,3.54-7.95,7.92-7.96,2.06,0,4.05,.8,5.53,2.23l-1.48,1.63,7.82,1.16-1.9-7.67-1.58,1.73c-4.9-4.62-12.61-4.39-17.23,.51-4.62,4.9-4.39,12.61,.51,17.23,4.9,4.62,12.61,4.39,17.23-.51,1.3-1.38,2.26-3.05,2.81-4.87l-4.18-.81c-1.14,3.16-4.14,5.27-7.5,5.25h0Z" fill="#ffff5b"/></svg>