<?xml version="1.0" encoding="UTF-8"?><svg id="Layer_1" xmlns="http://www.w3.org/2000/svg" viewBox="0 0 49 49"><path d="M27.74,8.4c-10.43,0-18.9,8.44-18.91,18.87,0,4.76,1.79,9.34,5.02,12.84,3.08,2.11,6.71,3.25,10.44,3.29h.21c10.44,0,18.9-8.46,18.9-18.9h0v-.05c-.01-4.9-1.93-9.6-5.34-13.11l.32,.34c-3.13-2.14-6.84-3.29-10.64-3.28Z" fill="#455ea7"/><path d="M13.85,40.11h0l-.44-.31h0c-.14-.1-.28-.2-.41-.31h0c-.44-.33-.86-.69-1.26-1.07h-.05l-.43-.42h0c-.39-.38-.76-.78-1.12-1.2v-.06l-.3-.36v-.06c-.22-.29-.45-.58-.66-.88h0l-.42-.44-.06-.09-.24-.37-.05-.09c-.09-.14-.18-.28-.26-.43h0l-.27-.48h0c-.08-.14-.16-.29-.23-.44l-.06-.11-.18-.37-.06-.13-.21-.49v-.08l-.24-.52h0c-.06-.15-.12-.3-.17-.45,0-.05,0-.09,0-.14,0-.13-.09-.25-.13-.37s0-.11,0-.16l-.12-.39s0-.08,0-.12l-.14-.53h0c0-.16-.08-.32-.11-.47s0-.11,0-.17,0-.24-.07-.37c0-.06,0-.11,0-.17,0-.13,0-.26-.07-.39,0-.05,0-.1,0-.15,0-.18,0-.36-.08-.54h0l-.06-.5v-1.13c0-.06,0-.11,0-.17v-.51H0v-.17c0,13.45,10.84,24.38,24.29,24.5v-5.6c-3.73-.04-7.36-1.18-10.44-3.29Z" fill="#91b9e3"/><path d="M43.4,24.45v.05c0,10.44-8.46,18.9-18.9,18.9h-.21v5.6h.21c13.53,0,24.5-10.97,24.5-24.5v-.05h-5.6Z" fill="#64abd8"/><path d="M5.6,24.55v-.05C5.6,14.06,14.06,5.6,24.5,5.6h.21V0h-.21C10.97,0,0,10.97,0,24.5v.05H5.6Z" fill="#64abd8"/><path d="M24.5,5.6C14.06,5.6,5.6,14.06,5.6,24.5h0v.56c0,.06,0,.11,0,.17v1.13l.06,.5h0c0,.18,0,.36,.08,.54,0,.05,0,.1,0,.15,0,.13,.05,.26,.07,.39,0,.06,0,.11,0,.17,0,.13,0,.25,.07,.37s0,.11,0,.17,.07,.31,.11,.47h0l.14,.53s0,.08,0,.12l.12,.39v.16c0,.06,.08,.24,.13,.37,0,.05,0,.09,0,.14,0,.15,.11,.3,.17,.45h0l.21,.51v.08l.18,.4,.06,.13,.18,.37,.06,.11c.07,.15,.15,.3,.23,.44h0l.27,.48h0c.08,.15,.17,.29,.26,.43l.05,.09,.24,.37,.06,.09,.29,.42h0c.21,.3,.44,.59,.66,.88v.06l.3,.36v.06c.36,.42,.73,.82,1.12,1.2h0l.36,.34h.05c.4,.38,.82,.74,1.26,1.07h0c.13,.11,.27,.21,.41,.31h0l.44,.31h0c-7.29-7.47-7.14-19.44,.34-26.73,6.76-6.59,17.35-7.18,24.8-1.38l-.32-.34h0l-.33-.34h0l-.33-.31h0l-.34-.3h0c-.11-.1-.22-.2-.34-.29h0l-.35-.29h0c-.11-.1-.23-.19-.36-.29h0l-.38-.29h0c-1.04-.74-2.15-1.38-3.31-1.91h-.06l-.38-.16h-.09l-.34-.14h-.13l-.32-.12h-.14l-.31-.1h-.15l-.4-.38h-.17l-.29-.09h-.18l-.28-.07h-.19l-.28-.07h-.19l-.28-.19h-3.64v-.4Z" fill="#334c99"/><path d="M30.61,23.67c.09,.26,.14,.54,.14,.82v7.86c0,1.36-1.11,2.46-2.47,2.47h-7.56c-.42,0-.84-.1-1.21-.31,.35,.98,1.28,1.64,2.33,1.65h7.57c1.36-.01,2.46-1.11,2.47-2.47v-7.87c0-.89-.49-1.71-1.27-2.15Z" fill="#334c99"/><path d="M28.28,34.82c1.36,0,2.46-1.11,2.47-2.47v-7.86c0-.28-.05-.56-.14-.82-.26-.74-.86-1.31-1.61-1.54v-2.26c0-.7-.17-1.38-.49-2-.21-.43-.49-.81-.83-1.15-1.75-1.76-4.59-1.78-6.35-.03-.85,.84-1.33,1.99-1.33,3.18v2.26c-1.04,.31-1.76,1.27-1.76,2.36v7.86c-.01,1.35,1.08,2.46,2.43,2.47,.01,0,.03,0,.04,0h7.57Zm-2.79-3.88h-2c-.19,0-.34-.15-.35-.34v-.08l.39-3.15c-.28-.26-.45-.62-.45-1,0-.14,.02-.28,.06-.42,.18-.59,.72-1,1.34-1h.28c.65,.13,1.12,.7,1.12,1.37,0,.38-.17,.74-.45,1l.39,3.15c.06,.2-.06,.4-.26,.46-.02,0-.05,.01-.07,.01Zm-1-14.12c.12-.01,.23-.01,.35,0,.68,.08,1.32,.38,1.8,.87,.24,.25,.44,.53,.59,.84,.21,.41,.31,.85,.31,1.31v2.16h-6.1v-2.3c.03-.75,.35-1.47,.89-2,.57-.58,1.36-.89,2.17-.88h0Z" fill="#fff"/><path d="M23.51,30.94h.56c-.2,0-.36-.18-.35-.39v-.03l.39-3.15c-.28-.26-.45-.62-.45-1,0-.67,.47-1.24,1.12-1.37h-.28c-.62,0-1.16,.41-1.34,1-.04,.14-.06,.28-.06,.42,0,.38,.17,.74,.45,1l-.39,3.15v.08c.04,.17,.18,.28,.35,.29Z" fill="#334c99"/><path d="M24.71,0V5.6h3.43l.28,.06h.19l.28,.07h.19l.28,.07h.18l.29,.09h.17l.3,.09h.15l.31,.1h.14l.32,.12h.13l.34,.14h.09l.38,.16h.06c1.16,.53,2.27,1.17,3.31,1.91h0l.38,.29h0c.13,.1,.25,.19,.36,.29h0l.35,.29h0c.12,.09,.23,.19,.34,.29h0l.34,.3h0l.33,.31h0l.32,.33h0c3.66,3.7,5.63,8.74,5.45,13.94h5.6v.05c0-13.45-10.84-24.38-24.29-24.5Z" fill="#91b9e3"/><path d="M22.51,21.21v.79h5v-2.13c0-.46-.1-.9-.31-1.31-.48-.31-1.05-.47-1.62-.47-1.7,.03-3.07,1.42-3.07,3.12Z" fill="#455ea7"/><path d="M24.85,16.85c-.12-.01-.23-.01-.35,0-.81,0-1.58,.32-2.15,.9-.54,.53-.86,1.25-.89,2,.52-1.51,1.82-2.62,3.39-2.9Z" fill="#455ea7"/><path d="M29,22.13c.4,.12,.77,.34,1.06,.64v-1.56c0-1.29-.56-2.52-1.55-3.36,.32,.62,.49,1.3,.49,2v2.28Z" fill="#334c99"/><path d="M21.46,19.7v2.3h1.06v-.81c0-1.72,1.39-3.11,3.11-3.12,.57,0,1.14,.16,1.62,.47-.15-.31-.35-.59-.59-.84-.48-.49-1.12-.79-1.8-.87-1.57,.27-2.87,1.37-3.4,2.87Z" fill="#334c99"/></svg>